<svg width="20px" height="22px" viewBox="0 0 20 22" version="1.1" xmlns="http://www.w3.org/2000/svg"
>
    <g id="Symbols" stroke="none" stroke-width="1" fill="none" fill-rule="evenodd">
        <g id="Calendar-Icon" fill-rule="nonzero">
            <g id="icon-calendar">
                <path d="M2.22222222,2.31578947 L17.7777778,2.31578947 C19.0050772,2.31578947 20,3.35260374 20,4.63157895 L20,19.6842105 C20,20.9631857 19.0050772,22 17.7777778,22 L2.22222222,22 C0.994922778,22 0,20.9631857 0,19.6842105 L0,4.63157895 C0,3.35789474 1,2.31578947 2.22222222,2.31578947 Z M2.22222222,8.10526316 L2.22222222,19.6842105 L17.7777778,19.6842105 L17.7777778,8.10526316 L2.22222222,8.10526316 Z"
                      id="Shape" fill="#19283C"></path>
                <path d="M4.44444444,0 C5.05809417,0 5.55555556,0.518407132 5.55555556,1.15789474 L5.55555556,4.63157895 C5.55555556,5.27106655 5.05809417,5.78947368 4.44444444,5.78947368 C3.83079472,5.78947368 3.33333333,5.27106655 3.33333333,4.63157895 L3.33333333,1.15789474 C3.33333333,0.518407132 3.83079472,0 4.44444444,0 Z M15.5555556,0 C16.1692053,0 16.6666667,0.518407132 16.6666667,1.15789474 L16.6666667,4.63157895 C16.6666667,5.27106655 16.1692053,5.78947368 15.5555556,5.78947368 C14.9419058,5.78947368 14.4444444,5.27106655 14.4444444,4.63157895 L14.4444444,1.15789474 C14.4444444,0.518407132 14.9419058,0 15.5555556,0 Z"
                      id="Shape" fill="#3C948D"></path>
            </g>
        </g>
    </g>
</svg>